Input #0, mov,mp4,m4a,3gp,3g2,mj2, from '/home/hbattu/projects/huberman-gpt/huberman-audio/mp3/tmp2jt1o1li.mp4':
  Metadata:
    major_brand     : dash
    minor_version   : 0
    compatible_brands: iso6mp41
    creation_time   : 2023-05-03T07:57:51.000000Z
  Duration: 02:01:40.59, start: 0.000000, bitrate: 129 kb/s
    Stream #0:0(eng): Audio: aac (LC) (mp4a / 0x6134706D), 44100 Hz, stereo, fltp, 0 kb/s (default)
    Metadata:
      creation_time   : 2023-05-03T07:57:51.000000Z
      handler_name    : ISO Media file produced by Google Inc.
Stream mapping:
  Stream #0:0 -> #0:0 (aac (native) -> mp3 (libmp3lame))
Press [q] to stop, [?] for help
[graph_0_in_0_0 @ 0x56529d96f300] tb:1/44100 samplefmt:fltp samplerate:44100 chlayout:0x3
Output #0, mp3, to '../huberman-audio/mp3/3ZGItIAUQmI.mp3':
  Metadata:
    major_brand     : dash
    minor_version   : 0
    compatible_brands: iso6mp41
    TSSE            : Lavf58.29.100
    Stream #0:0(eng): Audio: mp3 (libmp3lame), 44100 Hz, stereo, fltp, delay 1105 (default)
    Metadata:
      creation_time   : 2023-05-03T07:57:51.000000Z
      handler_name    : ISO Media file produced by Google Inc.
      encoder         : Lavc58.54.100 libmp3lame
No more output streams to write to, finishing.
size=  114073kB time=02:01:40.59 bitrate= 128.0kbits/s speed=90.9x    
[AVIOContext @ 0x56529d85f900] Statistics: 0 seeks, 161 writeouts
video:0kB audio:114072kB subtitle:0kB other streams:0kB global headers:0kB muxing overhead: 0.000296%
Input file #0 (/home/hbattu/projects/huberman-gpt/huberman-audio/mp3/tmp2jt1o1li.mp4):
  Input stream #0:0 (audio): 314410 packets read (116809375 bytes); 314410 frames decoded (321955840 samples); 
  Total: 314410 packets (116809375 bytes) demuxed
Output file #0 (../huberman-audio/mp3/3ZGItIAUQmI.mp3):
  Output stream #0:0 (audio): 279476 frames encoded (321955840 samples); 279477 packets muxed (116809978 bytes); 
  Total: 279477 packets (116809978 bytes) muxed
[AVIOContext @ 0x56529d887cc0] Statistics: 2 seeks, 447 writeouts
[AVIOContext @ 0x56529d868880] Statistics: 118152591 bytes read, 0 seeks
